<svg xmlns="http://www.w3.org/2000/svg" viewBox="0 0 256 256" role="img">
<title>Deimos: war motif interpreted as a NovaClaw synthetic colleague</title><defs>
<radialGradient id="bg" cx="50%" cy="34%"><stop stop-color="#e98279" stop-opacity=".42"/><stop offset=".48" stop-color="hsl(288 55% 20%)"/><stop offset="1" stop-color="#09050f"/></radialGradient>
<linearGradient id="gold" x1="0" y1="0" x2="0" y2="1"><stop stop-color="#fff1af"/><stop offset=".28" stop-color="#e9bd61"/><stop offset=".68" stop-color="#9c6120"/><stop offset="1" stop-color="#f1cf78"/></linearGradient>
<radialGradient id="iris"><stop stop-color="#fff7cf"/><stop offset=".18" stop-color="#f5d778"/><stop offset=".62" stop-color="#b66f1e"/><stop offset="1" stop-color="#2b1207"/></radialGradient>
<filter id="glow"><feGaussianBlur stdDeviation="3" result="b"/><feMerge><feMergeNode in="b"/><feMergeNode in="SourceGraphic"/></feMerge></filter>
</defs><rect width="256" height="256" fill="url(#bg)"/>
<g fill="none" stroke="#e98279" stroke-width="3" opacity=".32"><path d="m128 24 57 22v38c0 32-22 48-57 61-35-13-57-29-57-61V46Z"/><path d="m103 82 17 17 35-39"/></g>
<g fill="none" stroke="#f4d985" opacity=".18"><circle cx="128" cy="100" r="66" stroke-dasharray="4 8"/><circle cx="128" cy="100" r="73" stroke-dasharray="4 9"/><circle cx="128" cy="100" r="80" stroke-dasharray="4 10"/><circle cx="128" cy="100" r="87" stroke-dasharray="4 11"/><circle cx="128" cy="100" r="94" stroke-dasharray="4 12"/></g>
<path d="m128 18 64 55-18 139-46 31-46-31L64 73Z" fill="hsl(288 60% 13%)" stroke="url(#gold)" stroke-width="6"/>
<path d="m128 18 18 59-18 152-18-152Z" fill="#e98279" opacity=".24"/>
<path d="m64 73 46 4M192 73l-46 4M82 212l28-32M174 212l-28-32" fill="none" stroke="#e98279" stroke-width="3" opacity=".9"/>
<circle cx="128" cy="104" r="62" fill="none" stroke="#d8ab4b" stroke-dasharray="3 8" opacity=".45"/>
<g transform="translate(128 105) scale(0.76)">
<path d="M-57 0Q0-50 57 0 0 50-57 0Z" fill="#e7c878" stroke="url(#gold)" stroke-width="5"/>
<ellipse rx="26" ry="28" fill="url(#iris)" filter="url(#glow)"/><circle r="11" fill="#17080a"/><circle cx="-8" cy="-11" r="5" fill="#fff7d2"/>
</g><g transform="translate(93.44 165.4) scale(0.27)" fill="none" stroke="#e98279" stroke-width="7.4074074074074066" filter="url(#glow)"><path d="m128 24 57 22v38c0 32-22 48-57 61-35-13-57-29-57-61V46Z"/><path d="m103 82 17 17 35-39"/></g>
</svg>